<svg id="Camada_1" data-name="Camada 1" xmlns="http://www.w3.org/2000/svg" viewBox="0 0 2478.88 285.01"><defs><style>.cls-1{fill:#fff;}</style></defs><path d="M95.43,306.18c5.87-.77-.92,5.85,0,0Z" transform="translate(942 -278.89)"/><path class="cls-1" d="M100.75,279.56c6.44-1.86,15.32.05,17.41,7.28,3.41,12.36-2.62,24.21-6.37,35.74-2.59,4-5,10.43-.08,13.7,10.15,1.14,19.84-3.63,29.37-6.6,9.38-8.43,26.67-10.64,33.36,2.2C175.78,348,161.6,361,161,376.7c6,16.75,26.82,18,41.51,16.65,49.26-3.73,100.55-21.91,136.84-57.17.36-10.4,14.11-16,19.9-6.23.7,11.11-9.08,20.53-7.87,32-4.8,12,1.47,28.18,14.46,32.42,10.67,6.57,24.27,9.39,35.55,8.73,41.6-2.64,77.84-28.32,108.84-54.29,8.56-4.88,13.41-17.31,24.9-16.33,14.33-15.5,35.53-29.9,58-29.67,17.87,3,27.12,26.31,13.87,39.83-18.17,18.47-45.54,25.16-71,23-1.43,7.82.81,16.11,7.52,20.83,29.07,18.21,65.05,18,97.68,13.7C692.32,389.54,740,364.53,781,332.45c8.26-6.27,17.07,6.74,11.94,14.11-.31,8.93-5.84,17.25-4.12,26.23,17.7-14.16,36.91-32.13,61.43-30.24,14.13,2.84,22,16.28,28.52,27.8,7.83,7.57,14.77,16.42,24.51,21.58,40.1,15.09,81.06-10.19,111.07-35,7.31-3.5,11.22-11,15.42-17.52,14.78-17.34,33.57-33.06,56.48-37.54,22-6.93,48,12.62,45.42,36,2.89,9.17-14,14-16.86,4.76-.46-11.4-6.5-24.59-19.64-24.65-26.17,3.59-46.09,24.06-58.62,46-2.93,6.11-2.07,12.88-2,19.44,14.71,17.22,39.15,17,59.62,18.75,62.25,3.85,125-16.87,174.79-54.53,11.3-5.57,15.33-18.74,26.15-25,15.25-11.89,36.32-25.38,55.85-16.68,12.78,6.09,16.56,24.21,7.19,34.87-17.12,19.21-44.07,26.61-69.06,24.7-7.64,1.13-3.45,9.75-1.73,14.23,10,12.44,26,16.74,40.75,20.34,71.17,12.28,140.75-22.24,197.06-63.51,10.78-3.73,16.38,12.32,6.84,17.11a340.68,340.68,0,0,1-118.85,59.56c-34.86,9.12-71.91,11-106.24-1.13-19.58-4.69-40.55-18.68-40.31-40.95-46.57,33.69-104.5,47.5-160.45,50.09-25.67-4-54-1.59-76.42-17.69-8.81-4.35-11.44-14.59-15.58-22.68-27.27,18.14-58.12,35.7-92,32.33-28.26,1-52.63-20.17-65.44-44-2.49-4.64-6-9-11.56-9.78-30,8.23-50.64,34.65-70.94,55.69-4.7.07-13.3,1.76-13.3-5.26-.64-16,8.23-30.71,7.83-46.56-35.61,25.47-76.68,42.92-118.87,53.38-17.62,1.51-35.24,6.47-53.16,3.63-25.76-3.16-55.69-7.93-73.58-29.46-5.18-6.54-6.91-15.3-6.44-23.49-35.87,29.16-79.77,56-127.36,53.46-26.7-3.73-61.95-20.68-57.47-53.34-37.64,24.33-81.32,39.93-125.43,42.62-22,3.19-52.91-1.27-62.34-25.11-3.22-14.4,2.47-28.18,7.86-41.16-16.73,8.38-36.43,13.09-54.7,7.74-63.37,45.83-143.65,83.7-221.94,63.15-21.9-5.89-47.49-19.26-47.6-45.27-40.23,21.95-86.52,34.09-132.11,36-9.76,4.82-21.77-1.4-31.46,3.63-10.95,1.16-22.63-2-33,2.18-7.06,0-15.21-8.4-9.25-14.85,5.86-6.26,15.93-2.1,22.59-7.1C-345.44,383.68-336.2,374-335.1,362c-2.34-7.49-9.51-14.77-17.77-14.36-9.63,2.69-14.46,11.41-21.28,17.87-12,17.49-27.28,35.19-27.85,57.26-4.85,25-9.73,50.2-15.81,75.24-6.64,20.87-10,44.82-25.35,61.47-6.27,8.4-20.42,3.87-21.49-6.12-4.55-7.76,1.65-15.57.49-23.57,8.55-40.58,24.8-79.26,41.3-117.17,8.06-13.85,8-30.15,10.32-45.27-8,1.9-13.16,10.51-21.08,13.53-33.87,21.71-73.81,35.41-114.22,32.36-33.64-.18-64.81-17.51-91-37.74-13,.06-20.22,13.83-30.92,19.46-7.11,6.36-13.12,14.66-22.08,18.33-6.78.79-13-7-9.81-13.27,11.91-12.26,25.74-22.12,37.95-34,4-6.93-.25-14.85-6.79-18.48-11.79,14.17-29.49,21.72-44.4,32.07-53.21,30.05-116.88,51.55-177,35.53-21.68-5.27-48.27-16.84-50.15-42.15,2-32.65,31.62-59.25,62.15-68.24,12.1-5.09,29.06.17,33.53,13.41-.17,7.57,2.22,16.52-3.56,22.66-16.71,18.72-43.58,26.29-68,24.68-7.44-.29-6.66,9.61-3.11,13.71,12.58,17.3,35.93,19.77,55.18,23,65.67,5,127.73-26,180-63.41,8.66-5.62-7.14-9.08-6.59-15.95-.92-5.78,5.69-7.9,9.63-10.33,15.56,8.39,24.11,26.32,40,34,17.35-.17,27.16-24.62,45.92-21.73,4.51,3.33,5.78,10.33,1.15,14.22-6.73,4.89-13.31,10.1-20.48,14.43-7.1,6.87-1,17.13,6.76,20.15,23.8,17.84,53.28,25.13,82.64,22.69,45.51-4.13,88.19-28.28,120.3-60.48-1.95-8.91,4.51-19,14.45-14.81,11.3,8.91-2.09,24.82,2,36,10.15-15.87,29.54-33.27,49.18-25.16,22.49,5.48,30.87,36.9,16.11,54-3.9,7,9.15,4.52,13.27,3.42,49.65-4.64,103.38-13.52,143.56-46.8,3.69-2.55,6.27-6.57,11.2-6.67,13.18-14.94,30-27.56,49.86-31.37,14.1-6.28,32.5,5.71,31.46,21.46,1.33,7.89-4.83,13.67-8.71,19.7C-103,362-128.64,367.51-153,365.66c-1.22,7.64.45,16.84,8.09,20.53,26,17.85,58.59,17.42,88.67,15.34,50.23-7.95,97.73-31.34,138.37-61.8-13.93-20.12-5-52.47,18.64-60.17m-5.32,26.62c-.92,5.85,5.87-.77,0,0m-966.49,14.47c-17.45,3.45-33.83,14.29-43,29.67,17.37,1.54,33.2-8.4,47.45-17.18,5.8-4.11,2.65-14.45-4.46-12.49m768.09.11c-16.49,3.17-29.73,14.58-40.55,26.91,2,5.8,11.66,2.33,16.56.76,11.37-5.15,25.25-8.2,32.19-19.59,2-5.11-2.91-11.32-8.2-8.08m689,0c-16,3.94-33.77,14.67-40.14,29.74,16.76-.14,33.61-7.47,46.21-18.61,5.83-4.4.52-13.85-6.07-11.13m750.92-.06c-18.17,2.44-31.91,15.71-42.9,29.48,9.26,2.07,17.8-2.21,26.3-5.17,7.84-5.37,19.66-6.52,23.63-16.22,2.85-3.81-3.17-10.06-7-8.09M352.49,283.1c6.69-1,13.43-.31,14.5,7.6-4.42,10-14.24,16.85-23.84,21.34-8.49,3.33-17.66-6.58-10.73-13.91,6.93-4.4,14.45-8.77,20.07-15Z" transform="translate(942 -278.89)"/></svg>