<?xml version="1.0" encoding="UTF-8"?>
<!DOCTYPE svg PUBLIC "-//W3C//DTD SVG 1.1//EN" "http://www.w3.org/Graphics/SVG/1.1/DTD/svg11.dtd">
<!-- Creator: CorelDRAW 2020 (64 Bit) -->
<svg xmlns="http://www.w3.org/2000/svg" xml:space="preserve" width="210.004mm" height="24.1423mm" version="1.1" style="shape-rendering:geometricPrecision; text-rendering:geometricPrecision; image-rendering:optimizeQuality; fill-rule:evenodd; clip-rule:evenodd"
viewBox="0 0 21000.24 2414.21"
 xmlns:xlink="http://www.w3.org/1999/xlink"
 xmlns:xodm="http://www.corel.com/coreldraw/odm/2003">
 <defs>
  <style type="text/css">
   <![CDATA[
    .fil0 {fill:#1B263B;fill-rule:nonzero}
   ]]>
  </style>
 </defs>
 <g id="Camada_x0020_1">
  <metadata id="CorelCorpID_0Corel-Layer"/>
  <g>
   <path class="fil0" d="M8833.97 5.65c54.56,-15.76 129.78,0.42 147.49,61.67 28.89,104.71 -22.2,205.1 -53.96,302.77 -21.94,33.89 -42.36,88.36 -0.68,116.06 85.99,9.66 168.08,-30.75 248.81,-55.91 79.46,-71.42 225.94,-90.14 282.61,18.64 11.35,136.56 -108.78,246.69 -113.86,379.69 50.83,141.9 227.21,152.49 351.65,141.05 417.31,-31.6 851.81,-185.61 1159.24,-484.32 3.05,-88.1 119.53,-135.55 168.58,-52.78 5.93,94.12 -76.92,173.92 -66.67,271.09 -40.66,101.66 12.45,238.73 122.5,274.65 90.39,55.66 205.6,79.55 301.16,73.96 352.42,-22.36 659.42,-239.91 922.04,-459.92 72.52,-41.34 113.6,-146.64 210.94,-138.34 121.4,-131.31 300.99,-253.3 491.35,-251.35 151.39,25.41 229.75,222.89 117.5,337.42 -153.93,156.47 -385.8,213.14 -601.47,194.85 -12.11,66.25 6.86,136.48 63.71,176.46 246.27,154.27 551.07,152.49 827.49,116.06 433.07,-90.05 836.99,-301.93 1184.32,-573.68 69.98,-53.12 144.61,57.1 101.15,119.53 -2.63,75.65 -49.47,146.13 -34.9,222.21 149.95,-119.96 312.69,-272.19 520.41,-256.18 119.7,24.06 186.37,137.92 241.61,235.51 66.33,64.13 125.13,139.1 207.64,182.82 339.71,127.84 686.7,-86.33 940.93,-296.5 61.93,-29.65 95.05,-93.19 130.63,-148.42 125.21,-146.9 284.39,-280.07 478.47,-318.02 186.37,-58.71 406.64,106.91 384.78,304.98 24.48,77.68 -118.6,118.6 -142.83,40.32 -3.9,-96.58 -55.07,-208.32 -166.38,-208.82 -221.7,30.41 -390.45,203.83 -496.6,389.69 -24.82,51.76 -17.54,109.11 -16.94,164.69 124.62,145.88 331.66,144.02 505.07,158.84 527.35,32.62 1058.94,-142.92 1480.74,-461.95 95.73,-47.19 129.87,-158.76 221.53,-211.79 129.19,-100.73 307.69,-215.01 473.14,-141.31 108.27,51.59 140.29,205.1 60.91,295.4 -145.03,162.74 -373.34,225.43 -585.04,209.25 -64.72,9.57 -29.23,82.6 -14.66,120.55 84.72,105.39 220.26,141.81 345.22,172.31 602.91,104.03 1192.36,-188.41 1669.39,-538.02 91.32,-31.6 138.76,104.37 57.95,144.95 -298.82,232.12 -642,404.41 -1007.03,504.48 -295.32,77.26 -609.18,93.19 -900.01,-9.57 -165.87,-39.73 -343.52,-158.25 -341.49,-346.91 -394.52,285.41 -885.27,402.4 -1359.25,424.34 -217.47,-33.89 -457.46,-13.47 -647.39,-149.86 -74.63,-36.85 -96.91,-123.6 -131.99,-192.14 -231.02,153.67 -492.37,302.43 -779.37,273.89 -239.41,8.47 -445.86,-170.87 -554.37,-372.75 -21.09,-39.31 -50.83,-76.24 -97.93,-82.85 -254.15,69.72 -429,293.54 -600.96,471.78 -39.82,0.59 -112.67,14.91 -112.67,-44.56 -5.42,-135.55 69.72,-260.16 66.33,-394.44 -301.67,215.77 -649.59,363.6 -1007.01,452.21 -149.27,12.79 -298.54,54.81 -450.35,30.75 -218.23,-26.77 -471.78,-67.18 -623.33,-249.57 -43.88,-55.4 -58.54,-129.61 -54.56,-199 -303.88,247.03 -675.77,474.41 -1078.93,452.89 -226.19,-31.6 -524.81,-175.19 -486.86,-451.87 -318.87,206.11 -688.9,338.27 -1062.58,361.06 -186.37,27.02 -448.23,-10.76 -528.11,-212.72 -27.28,-121.99 20.92,-238.73 66.59,-348.69 -141.73,70.99 -308.62,110.89 -463.39,65.57 -536.83,388.25 -1216.93,709.06 -1880.16,534.97 -185.53,-49.9 -402.31,-163.16 -403.25,-383.51 -340.81,185.95 -732.95,288.8 -1119.17,304.98 -82.68,40.83 -184.43,-11.86 -266.52,30.75 -92.76,9.83 -191.71,-16.94 -279.56,18.47 -59.81,0 -128.85,-71.16 -78.36,-125.8 49.64,-53.03 134.95,-17.79 191.37,-60.15 85.5,-47.8 163.78,-129.8 173.09,-231.46 -19.82,-63.45 -80.56,-125.13 -150.54,-121.65 -81.58,22.79 -122.5,96.66 -180.27,151.39 -101.66,148.17 -231.1,298.11 -235.93,485.08 -41.09,211.79 -82.43,425.27 -133.94,637.39 -56.25,176.8 -84.72,379.7 -214.75,520.75 -53.12,71.16 -172.99,32.78 -182.05,-51.85 -38.55,-65.74 13.98,-131.9 4.15,-199.67 72.43,-343.78 210.09,-671.45 349.88,-992.6 68.28,-117.33 67.77,-255.42 87.43,-383.51 -67.77,16.1 -111.49,89.04 -178.58,114.62 -286.93,183.92 -625.28,299.98 -967.61,274.14 -284.98,-1.52 -549.03,-148.34 -770.9,-319.72 -110.13,0.51 -171.3,117.16 -261.94,164.86 -60.23,53.88 -111.15,124.19 -187.05,155.28 -57.44,6.69 -110.13,-59.3 -83.11,-112.42 100.9,-103.86 218.06,-187.39 321.5,-288.03 33.89,-58.71 -2.12,-125.8 -57.52,-156.55 -99.88,120.04 -249.83,184 -376.14,271.68 -450.77,254.57 -990.15,436.71 -1499.46,300.99 -183.66,-44.65 -408.92,-142.66 -424.85,-357.08 16.94,-276.6 267.87,-501.94 526.5,-578.09 102.51,-43.12 246.18,1.44 284.05,113.6 -1.44,64.13 18.81,139.95 -30.16,191.97 -141.56,158.59 -369.19,222.72 -576.06,209.08 -63.03,-2.46 -56.42,81.41 -26.35,116.15 106.57,146.56 304.38,167.48 467.46,194.85 556.32,42.36 1082.06,-220.26 1524.87,-537.17 73.36,-47.61 -60.49,-76.92 -55.83,-135.12 -7.79,-48.97 48.2,-66.93 81.58,-87.51 131.82,71.08 204.25,222.97 338.86,288.03 146.98,-1.44 230.09,-208.57 389.01,-184.09 38.21,28.21 48.97,87.51 9.74,120.47 -57.01,41.43 -112.76,85.56 -173.5,122.24 -60.15,58.2 -8.47,145.12 57.27,170.7 201.62,151.13 451.37,212.89 700.08,192.22 385.54,-34.99 747.1,-239.58 1019.12,-512.36 -16.52,-75.48 38.21,-160.96 122.41,-125.46 95.73,75.48 -17.71,210.26 16.94,304.98 85.99,-134.44 250.25,-281.85 416.63,-213.14 190.53,46.42 261.52,312.6 136.48,457.46 -33.04,59.3 77.51,38.29 112.42,28.97 420.61,-39.31 875.78,-114.54 1216.17,-396.47 31.26,-21.6 53.12,-55.66 94.88,-56.51 111.66,-126.57 254.15,-233.48 422.39,-265.75 119.45,-53.2 275.33,48.37 266.52,181.8 11.27,66.84 -40.92,115.81 -73.79,166.89 -159.76,139.18 -376.98,185.86 -583.33,170.19 -10.34,64.72 3.81,142.66 68.53,173.92 220.26,151.22 496.35,147.57 751.16,129.95 425.53,-67.35 827.92,-265.5 1172.2,-523.54 -118.01,-170.45 -42.36,-444.5 157.91,-509.73l-0.16 0zm-44.9 225.51c-7.79,49.56 49.73,-6.52 0,0l0 0zm-8187.61 122.58c-147.83,29.23 -286.59,121.06 -364.28,251.35 147.15,13.05 281.26,-71.16 401.98,-145.54 49.14,-34.82 22.45,-122.41 -37.78,-105.81l0.08 0zm6506.78 0.93c-139.7,26.85 -251.86,123.52 -343.52,227.97 16.94,49.14 98.78,19.74 140.29,6.44 96.32,-43.63 213.91,-69.47 272.7,-165.96 16.94,-43.29 -24.65,-95.9 -69.47,-68.45l0 0zm5836.86 0c-135.55,33.38 -286.08,124.28 -340.05,251.94 141.98,-1.19 284.73,-63.28 391.47,-157.66 49.39,-37.27 4.41,-117.33 -51.42,-94.29l0 0.01zm6361.41 -0.5c-153.93,20.67 -270.33,133.09 -363.43,249.74 78.45,17.54 150.79,-18.72 222.8,-43.8 66.42,-45.49 166.55,-55.23 200.18,-137.41 24.14,-32.28 -26.85,-85.22 -59.3,-68.53l-0.25 0zm-8339.93 -318.54c56.67,-8.47 113.77,-2.63 122.84,64.38 -37.44,84.72 -120.64,142.75 -201.96,180.78 -71.92,28.21 -149.61,-55.74 -90.9,-117.84 58.71,-37.27 122.41,-74.3 170.02,-127.07l0 -0.25z"/>
  </g>
 </g>
</svg>
