<?xml version="1.0" encoding="UTF-8"?>
<!DOCTYPE svg PUBLIC "-//W3C//DTD SVG 1.1//EN" "http://www.w3.org/Graphics/SVG/1.1/DTD/svg11.dtd">
<!-- Creator: CorelDRAW 2020 (64 Bit) -->
<svg xmlns="http://www.w3.org/2000/svg" xml:space="preserve" width="88.3203mm" height="39.1014mm" version="1.1" style="shape-rendering:geometricPrecision; text-rendering:geometricPrecision; image-rendering:optimizeQuality; fill-rule:evenodd; clip-rule:evenodd"
viewBox="0 0 9258.68 4099.03"
 xmlns:xlink="http://www.w3.org/1999/xlink"
 xmlns:xodm="http://www.corel.com/coreldraw/odm/2003">
 <defs>
  <style type="text/css">
   <![CDATA[
    .fil0 {fill:#1B263B}
   ]]>
  </style>
 </defs>
 <g id="Camada_x0020_1">
  <metadata id="CorelCorpID_0Corel-Layer"/>
  <g id="_19bc5cdf-4873-4e82-a965-3fb66ec72a4b">
  </g>
  <path class="fil0" d="M5500.72 1648.33c10.61,-39.72 99.04,-107.39 159.84,-93.24 -0.75,33.6 -13.17,44.93 -59.91,66.64 -26.96,12.52 -60.89,26.6 -99.92,26.6zm-2310.86 0c7.66,-28.67 43.85,-55.3 69.23,-70.62 106.51,-64.31 127.21,2.99 25.99,45.97 -32.47,13.8 -50.94,24.66 -95.22,24.66zm4821.5 0c93.79,-140.05 258.45,-105.18 104.43,-28.76 -33.12,16.43 -57.55,28.76 -104.43,28.76zm-7405.4 0c27.1,-40.44 111.24,-123.56 166.49,-86.57 -12.13,52.06 -115.48,86.57 -166.49,86.57zm3383.04 -146.49l1.99 1.97c-0.14,-0.13 -2.65,-1.32 -1.99,-1.97zm-66.59 13.31c0,36.16 4.82,71.25 19.97,99.88 -71.1,47.61 -138.95,92.33 -221.95,131.02 -136.48,63.59 -332.97,103.9 -484.92,49.75 -20.76,-7.4 -31,-12.54 -48.78,-24.48 -26.14,-17.56 -30.18,-37.29 -30.18,-69.71 79.93,0 176.26,-8.02 231.36,-68.32 100.92,-110.49 -60.89,-224.33 -219.65,-59.82 -17.57,18.21 -14.82,16.68 -37.07,29.52 -41.06,23.69 -76.21,56.82 -118.96,80.81 -87.6,49.18 -299.65,97.71 -435.06,97.71 8.06,-30.2 26.64,-46.74 26.64,-93.23 0,-105.2 -123.04,-136.76 -191.33,-78.12 -21.03,18.05 -38,38.48 -55.08,58.13 4.15,-49.79 36.52,-119.87 -26.64,-119.87 -35.12,0 -4.99,41.63 -76.03,97.12 -34.6,27.04 -62.41,49.69 -101.66,71.49 -99.98,55.49 -182.03,84.45 -315.11,84.45 -81.84,0 -143.24,-29.58 -203.92,-69.11 -115.97,-75.59 39,-82 47.17,-138.75 2.52,-17.44 -7.57,-31.87 -29.72,-31.87 -27.52,0 -47.94,21.17 -65.58,34.31 -71.69,53.34 -74.06,49.39 -139.19,-16 -25.32,-25.4 -36.28,-41.35 -68.27,-58.28 -56.37,29.83 -27.57,38.73 0,79.93 -151.55,101.48 -329.62,219.75 -526.1,219.75 -79.43,0 -279.7,-9.26 -279.7,-99.89 0,-34.09 72.18,-8.45 157.14,-42.65 214.91,-86.45 63.08,-301.09 -135.61,-115.64 -235.22,219.57 49.65,386.37 410.02,296.82 123.18,-30.6 292.96,-109.62 392.27,-193.77 13.44,-11.38 14.14,-14.99 28.6,-24.68 25.11,37.5 33.72,51.66 -9.37,83.86 -18.33,13.71 -103.83,83.99 -103.83,95.94 0,17.99 3.18,18.37 6.66,33.3 17.85,4.28 12.55,6.66 26.64,6.66 29.95,0 134.5,-126.53 173.15,-126.53 14.62,0 50.1,31.8 65.22,41.32 203.34,128.13 413.55,107.48 615.32,-13.42 16.36,-9.79 25.26,-14.31 40.68,-25.9 16.06,-12.08 25.08,-23.42 44.62,-28.64 -0.58,25.78 -9.09,65.39 -13.97,92.57 -11.15,62.04 -271.56,566.73 -119.21,566.73 53.31,0 87.49,-115.23 101.35,-165.04 18.19,-65.39 36.53,-143.62 51.38,-215 16.43,-78.91 17.98,-140.76 58.22,-208.16 21.45,-35.92 82.84,-137.7 128.68,-137.7 52.66,0 65.95,61.69 25.3,105.2 -48.89,52.32 -91.77,29.52 -125.19,67.95 9.31,39.94 25.55,40.42 61.38,35.51 104.77,-14.37 207.06,-9.9 307.84,-25.9 97.32,-15.49 169.87,-37.47 253.98,-72.34 26.07,-10.81 55.85,-31.75 76.07,-37.15 1.66,74.69 53.58,110.52 107.39,132.35 177.79,72.15 394.31,32.12 552,-45.67 70.31,-34.69 143.53,-74.34 206.36,-119.98 48.27,-35.08 52.2,-19.97 106.54,-19.97 46.39,0 82.86,-17.24 113.21,-33.3 -10.58,45.41 -26.64,63.62 -26.64,119.87 0,66.04 91.16,106.56 159.84,106.56 138.39,0 256.22,-31.8 370.81,-88.7 39.3,-19.52 66.34,-38.93 102.02,-57.81 0,76.37 16.52,96.98 62.55,130.57 115.23,84.07 273.86,40.87 381.44,-12.88 65.29,-32.63 116.66,-78.37 175.34,-117.68 0,79.95 45.86,111.69 102.01,137.73 244.15,113.24 546.76,-19.13 743.75,-151.04 -0.68,30.51 -55.75,173.14 -6.66,173.14 31.86,0 28.02,0.6 48.86,-24.38 43.77,-52.51 145.9,-158.39 212.03,-160.28 49.78,-1.43 84.65,178 251.89,178 106.48,0 174.83,-17.58 261.1,-71.87 20.37,-12.81 34.55,-28.27 58.56,-34.68 34.11,146.44 309.92,140.91 429.25,122.91 173.7,-26.19 298.94,-77.49 416.5,-156.22 0,71.33 51.98,108.42 105.6,127.5 210.19,74.78 423.32,25.03 611.45,-76.4 45.66,-24.62 188.66,-98.65 188.66,-144.33 0,-75.06 -124.77,32.85 -142.66,43.82 -108.54,66.53 -272.04,149.31 -410.08,149.31 -85.33,0 -230.58,3.71 -281.2,-72.22 -25.16,-37.71 -10.36,-46.95 20.62,-48.32 86.82,-3.83 147.2,-13.73 202.64,-70.59 100.28,-102.83 -56.78,-224.53 -227.02,-53.87 -25.04,25.11 -38.54,44.87 -67.03,66.17 -27.04,20.22 -50.26,35.2 -79.51,53.67 -144.35,91.16 -302.3,125.16 -494.17,125.16 -128.13,0 -270.85,-36.28 -178,-158.02 40.96,-53.7 96.16,-121.68 178,-121.68 64.7,0 49.53,99.89 79.91,99.89 86.24,0 28.59,-159.82 -79.91,-159.82 -63.41,0 -116.11,33.21 -153.28,59.82 -75.07,53.73 -88.95,130.02 -228.48,204.41 -122.66,65.37 -238.19,93.06 -339.22,-22.74 -38.61,-44.26 -52.11,-101.64 -124.78,-101.64 -75.58,0 -138.83,67.99 -186.46,99.89 1.26,-56.57 27.73,-71.32 13.31,-133.19 -50.78,-11.82 -87.75,36.45 -129.11,64.02 -120.54,80.36 -291.43,169.06 -450.27,169.06 -72.86,0 -135.73,-2.37 -200.73,-25.7 -52.79,-18.95 -78.97,-35.76 -78.97,-94.16 63.34,0 136.53,-7.5 187.94,-38.48 149.31,-90.01 46.8,-248.14 -129.48,-129.47 -24.14,16.25 -26.61,21.98 -47.31,39.25l-11.37 8.61c-61.82,37.31 14.32,-21.52 -93.95,65.88 -110.9,89.54 -278.77,216.49 -433.09,168.58 -210.13,-65.23 7.48,-254.21 -98.74,-254.21 -25.69,0 -43.05,49.91 -65.5,67.7 -202.72,160.46 -618.78,239.22 -556.81,69.53 13.09,-35.83 36.27,-62.95 36.27,-103.93 0,-18.83 -27.78,-39.97 -46.62,-39.97 -30.46,0 -173.15,76.59 -173.15,33.3 0,-22.88 79.95,-179.8 -6.66,-179.8 -54.34,0 -106.55,51.66 -106.55,106.55z"/>
  <path class="fil0" d="M1571.6 156.6c-86.81,0 -706.03,5.22 -757.37,-1.81 -80.97,-11.09 -195.81,4.83 -279.7,-6.66 -106.75,-14.63 -283.26,11.34 -368.56,-50.99 -51.75,-37.82 -7.12,-87.04 -72.78,-87.04 -42.93,0 -20.32,153.38 -31.48,234.89l-27.43 372.13c-5.01,47.44 -3.72,77.42 -9.58,123.62l-20.52 180.05c-6.73,43.65 -11.23,48.27 35.74,48.27 32.55,0 34.9,-67.15 50.54,-129.27 18.02,-71.6 61.73,-203.36 97.16,-262.45 32.99,-55.04 22.29,-48.36 69.11,-110.7 151.01,-201.08 348.31,-223.47 608.97,-223.47 92.28,0 210.59,9.24 271.1,41.9 67.42,36.39 88.51,130.09 88.51,231.14l0 539.43 372.94 0c0,-146.98 -22.19,-650.52 51.45,-734.37 81.06,-92.26 287.34,-78.1 408.05,-78.1 265.1,0 459.91,90.97 555.08,290.7 54.54,114.48 90.9,297.14 90.9,428.54 86.71,20.2 67.67,-2.23 66.55,-219.8l26.67 -552.72c2.72,-52.87 13.33,-112.44 13.33,-186.44 -107.94,-25.85 -4.76,101.99 -232.47,127.15 -104.37,11.52 -539.19,19.96 -666.61,19.31 -59.78,-0.3 -101.42,6.72 -166.44,6.7 -57.72,-0.01 -115.43,0 -173.15,0z"/>
  <path class="fil0" d="M7431.98 2787.11c0,124.31 -4.09,299.82 -68.33,357.87 -66.35,59.96 -231.58,68.33 -357.88,68.33l0 59.94 2151.03 0c70.4,0 59.94,-83.05 59.93,-153.17 -0.02,-199.19 15.68,-320.3 33.9,-512.18 3.29,-34.62 11.91,-66.17 6.05,-93.83 -75.68,-18.13 -53.82,0.28 -84.12,102.34 -87.42,294.43 -290.45,543.63 -621.78,543.63l-439.53 0c-101.05,0 -192.58,-16.36 -244.97,-68.04 -34.37,-33.91 -39.85,-50 -53.56,-99.61 -25.77,-93.3 -14.47,-661.49 -14.47,-791.33l-366.28 0 0 586.05z"/>
  <path class="fil0" d="M7005.77 163.26c0,76.32 12.98,34.02 193.21,53.18 58.06,6.17 126.97,28.37 160.86,58.9 77.72,70.04 72.13,261.41 72.13,367.4l0 412.89 366.28 0c0,-134.5 -12.71,-531.86 19,-640.3 43.54,-148.89 196.01,-158.85 373.91,-158.85 285.3,0 487.67,-33.99 687.61,164.83 132.93,132.18 135.59,253.83 171.47,407.9l53.29 0 0.22 -306.57c-0.05,-38.51 -6.08,-45.37 -7.11,-79.47 -1.69,-56.42 0.19,-116.52 0.23,-173.36 0.03,-58.26 11.57,-126.54 -46.63,-126.54l-2024.49 0c-15.35,0 -19.98,4.63 -19.98,19.99z"/>
  <path class="fil0" d="M1225.3 2900.32c0,58.96 -9.58,132.32 -26.56,173.22 -45.24,108.93 -149.48,119.29 -267.42,132.15l-192.15 7.62 0 59.94 699.25 -6.66c222.74,0 423.42,6.66 645.97,6.66l0 -59.94c-110.2,0 -307.34,-3.34 -399.5,-59.99 -89.96,-55.3 -74.45,-208.3 -82.8,-263.5 -8.3,-54.89 -3.85,-601.28 -3.85,-688.75l-372.94 0 0 699.25z"/>
  <path class="fil0" d="M3596.09 2847.05c0,61.94 -4.24,130.45 -16.03,183.76 -13.27,59.96 -31.11,95.32 -73.04,126.74 -63.3,47.44 -238.59,55.77 -350.46,55.77l0 59.94c98.89,0 847.73,-17.32 960.79,-1.82l231.49 2.05c57.12,0.94 59.71,6.95 59.71,-40.19 0,-33.52 -105.81,-19.78 -178.85,-27.59 -211.58,-22.62 -267.34,-75.69 -267.34,-358.66l0 -645.98 -366.28 0 0 645.98z"/>
  <path class="fil0" d="M5827.04 2893.66c0,103.25 -14.09,224.39 -105.32,274.27 -69.19,37.82 -232.51,45.38 -340.87,45.38 -3.33,40.06 -3.33,19.89 0,59.94l645.98 -6.66c209.46,0 396.76,6.66 606.02,6.66 9.13,-38.13 10.76,-13.8 0,-59.94 -182.29,0 -362.56,2.45 -413.89,-138.84 -14.5,-39.91 -25.63,-104.41 -25.63,-160.82l0 -712.59 -366.28 0 0 692.6z"/>
  <path class="fil0" d="M3156.57 169.92c0,41.49 17.83,40.9 59.56,40.33 312.98,-4.36 379.96,69.7 379.96,359.25l0 486.13 366.28 0c0,-129.8 -9.03,-540.35 14.85,-651.09 52.31,-242.48 286.25,-167.53 431.34,-201.33 0,-20.03 5.79,-59.94 -13.32,-59.94 -221.95,0 -438.67,13.32 -672.61,13.32 -194.34,0 -363.26,-13.32 -559.4,-13.32 -4.28,17.87 -6.66,12.56 -6.66,26.65z"/>
  <path class="fil0" d="M5380.85 203.21c37.55,8.75 136.46,10.24 180.06,13.07 212.23,13.82 266.13,117.1 266.13,319.9l0 519.45 366.28 0 0 -552.74c0,-64.32 12.45,-163.58 57.03,-209.36 0.95,-0.97 2.41,-2.31 3.4,-3.24 16.24,-15.64 31.52,-30.99 52.59,-40.66 113.19,-51.96 258.36,-30.54 326.51,-46.42 15.63,-65.29 -3.33,-59.94 -66.59,-59.94 -201.58,0 -406.25,13.32 -626,13.32 -190.29,0 -356.25,-13.32 -546.08,-13.32 -26.34,0 -14.63,44.21 -13.32,59.94z"/>
  <path class="fil0" d="M3982.35 3766.06c0,-374.43 459.5,-302.33 459.5,26.63l0 46.62c0,235.36 -256.24,327.33 -393.99,140.92 -35.38,-47.88 -65.52,-133.07 -65.52,-214.17zm-86.58 19.97c0,172.14 119.95,312.99 266.39,312.99 113.74,0 178.93,-6.64 268.04,-84.91 203.49,-178.76 69.48,-521.1 -168.15,-521.1 -111.11,0 -182.3,6.85 -273.05,86.58 -18.33,16.1 -52.17,57.21 -64.51,81.99 -15.58,31.27 -28.71,80.02 -28.71,124.46z"/>
  <path class="fil0" d="M3169.89 3526.32l59.93 0c9.67,14.42 19.98,22.17 19.98,46.63l0 446.18c0,22.95 -4.93,25.78 -6.67,46.61 -32.32,7.54 -30.09,13.32 -73.25,13.32l239.74 0c-30.65,0 -52.88,-3.54 -73.26,-13.32 -14.44,-61.94 -6.66,-195.86 -6.66,-266.37l339.63 0c0,237.4 26.68,279.7 -86.57,279.7l246.4 0c-58.55,0 -86.58,-7 -86.58,-66.6 0,-88.23 -11.56,-427.61 13.32,-479.49 21.05,-4.91 16.15,-3.33 40.44,-6.16 34.42,-4.02 16.5,8.45 32.81,-13.82l-246.4 0c20.65,28.19 -4.87,1.78 73.26,19.98 21.63,45.09 13.31,184.19 13.31,246.4l-339.63 0 0 -219.77c0,-16.01 10.79,-19.56 19.97,-33.29l59.94 -13.32 -239.74 13.32z"/>
  <path class="fil0" d="M5280.95 3566.28l0 466.16c0,70.11 -56.66,28.22 -79.91,59.93 95.46,0 190.91,0 286.37,0 168.06,0 131.56,39.72 146.51,-139.83 -49.66,4.13 -13.49,28.02 -54.86,78.34 -46.48,56.52 -218.18,58.84 -218.18,8.23l0 -239.75c106.95,0 186.46,-18.57 186.46,79.91l19.98 0 0 -173.15 -19.98 0c-1.98,89.28 -89.13,73.26 -186.46,73.26 0,-67.59 -7.58,-178.64 6.66,-239.74 37.21,-17.86 179.21,-43.11 209.58,63.45 9.35,32.8 -8.23,27.96 23.5,36.44l0 -133.2 -399.57 0c19.9,27.15 16.64,6.12 51.55,15.05 17.99,4.61 28.37,19.53 28.37,44.89z"/>
  <path class="fil0" d="M4608.35 3672.84c55.94,-37.47 -2.99,-139.87 166.49,-139.87 53.4,0 59.93,21.17 59.93,73.26 0,60.9 10.55,435.63 -13.32,459.5 -22.22,10.67 -46.18,13.32 -79.91,13.32l259.72 0c-82.74,0 -93.23,-8.32 -93.23,-93.24 0,-57.94 -6.36,-398.88 8.06,-431.46 17.6,-39.77 140.41,-24.47 169.22,21.09 8.83,13.96 13.31,30.96 17.2,49.4 6.77,32.14 -3.23,40.37 25.27,47.99 0,-66.43 6.66,-115 6.66,-186.47 -41.26,4.51 -1.54,26.63 -99.89,26.63 -55.58,0 -346.74,6.3 -379.84,-6.39 -44.15,-16.93 4.96,-15.35 -39.7,-20.23 0,46.2 -15.56,167.92 -6.66,186.47z"/>
  <path class="fil0" d="M5700.51 3526.32c60.96,0 79.91,-2.7 79.91,59.93l0 432.88c0,62.64 -18.95,59.93 -79.91,59.93l459.5 13.31c0,-53 10.18,-131.97 0,-153.17 -18.98,13.92 -12.61,17.3 -22.71,43.89 -6.19,16.28 -16.33,34.36 -26.4,46.85 -46.2,57.26 -202.59,46.41 -227.29,39.14 -21.54,-6.32 -29.94,-10.45 -29.94,-83.27 0,-60.51 -6.02,-399.08 8.2,-437.98 9.8,-26.81 34.23,-21.52 71.71,-21.52l-233.08 0z"/>
  <path class="fil0" d="M4774.84 1495.16c0,39.96 54.72,34.49 101.99,-11.3 16.02,-15.51 49.84,-61.94 -15.42,-61.94 -12.62,0 -36.49,22.91 -48.54,31.38 -18.25,12.83 -38.03,15.92 -38.03,41.87z"/>
 </g>
</svg>
